<svg xmlns="http://www.w3.org/2000/svg" xmlns:xlink="http://www.w3.org/1999/xlink" width="500" zoomAndPan="magnify" viewBox="0 0 375 374.999991" height="500" preserveAspectRatio="xMidYMid meet" version="1.0"><defs><clipPath id="fd445e6983"><path d="M 8 228 L 368.277344 228 L 368.277344 356.25 L 8 356.25 Z M 8 228 " clip-rule="nonzero"/></clipPath></defs><g clip-path="url(#fd445e6983)"><path fill="#fbf7ed" d="M 368.125 351.246094 C 364.925781 355.058594 360.75 356.164062 355.898438 356.164062 C 244.261719 356.085938 132.628906 356.113281 20.980469 356.035156 C 10.34375 356.023438 6.882812 351.761719 8.738281 341.273438 C 13.832031 312.554688 29.421875 290.054688 51.769531 272.371094 C 88.980469 242.921875 132.1875 230.042969 179.183594 228.535156 C 212.078125 227.484375 244.160156 231.546875 274.839844 243.949219 C 320.027344 262.199219 355.546875 289.964844 368.113281 339.957031 C 368.125 343.71875 368.125 347.484375 368.125 351.246094 Z M 368.125 351.246094 " fill-opacity="1" fill-rule="nonzero"/></g><path fill="#fbf7ed" d="M 183.859375 21.949219 C 226.816406 18.710938 269.484375 59.121094 268.417969 106.644531 C 267.351562 153.875 230.328125 191.601562 183.082031 191.527344 C 136.175781 191.449219 98.925781 153.3125 98.425781 105.914062 C 97.925781 60.074219 138.636719 18.726562 183.859375 21.949219 Z M 183.859375 21.949219 " fill-opacity="1" fill-rule="nonzero"/></svg>